# xmcd
#
# Track frame offsets:
#	150
#	12158
#	18886
#	31149
#	38874
#	49352
#	60700
#	73833
#	83553
#	95583
#	105521
#	114956
#
# Disc length: 1676 seconds
#
# Revision: 1
# Processed by: cddbd v1.5.2PL0 Copyright (c) Steve Scherf et al.
# Submitted via: audiograbber 1.83.01
#
DISCID=8f068a0c
DTITLE=Herb Alpert - Whipped Cream and Other Delights
DYEAR=1965
DGENRE=Country
TTITLE0=A Taste Of Honey
TTITLE1=Green Peppers
TTITLE2=Tangerine
TTITLE3=Bittersweet Samba
TTITLE4=Lemon Tree
TTITLE5=Whipped Cream
TTITLE6=Love Potion No. 9
TTITLE7=El Garbonzo
TTITLE8=Lady Fingers
TTITLE9=Butterball
TTITLE10=Peanuts
TTITLE11=Lollipops And Roses
EXTD=
EXTT0=
EXTT1=
EXTT2=
EXTT3=
EXTT4=
EXTT5=
EXTT6=
EXTT7=
EXTT8=
EXTT9=
EXTT10=
EXTT11=
PLAYORDER=
